<?xml version="1.0" encoding="UTF-8"?>
<svg version="1.1" xmlns="http://www.w3.org/2000/svg" width="601" height="601">
<path d="M0 0 C198.33 0 396.66 0 601 0 C601 198.33 601 396.66 601 601 C402.67 601 204.34 601 0 601 C0 402.67 0 204.34 0 0 Z " fill="#EC1C24" transform="translate(0,0)"/>
<path d="M0 0 C2.60771216 -0.00135196 5.21542407 -0.00329688 7.82313538 -0.00579834 C13.25475135 -0.0094041 18.68631236 -0.00472988 24.11791992 0.00488281 C30.33172453 0.01575521 36.54539766 0.01223674 42.75919908 0.00123 C48.81989157 -0.00906183 54.88052739 -0.00781751 60.94122505 -0.00200653 C63.48246848 -0.00068937 66.02371536 -0.00224836 68.56495476 -0.00696564 C131.22068937 -0.09778956 131.22068937 -0.09778956 150.47265625 18.265625 C164.75818247 33.23141437 163.47265625 52.31241249 163.47265625 72.265625 C141.36265625 72.265625 119.25265625 72.265625 96.47265625 72.265625 C96.14265625 68.635625 95.81265625 65.005625 95.47265625 61.265625 C93.47941122 56.97248187 92.18015688 55.63200925 87.97265625 53.453125 C83.92105686 52.07847521 80.52793949 51.14277906 76.24908447 51.12518311 C75.41373169 51.11947296 74.57837891 51.11376282 73.7177124 51.10787964 C72.80958801 51.10676178 71.90146362 51.10564392 70.96582031 51.10449219 C69.52118408 51.09704483 69.52118408 51.09704483 68.04736328 51.08944702 C64.86099533 51.0748417 61.67467718 51.06802576 58.48828125 51.0625 C56.2711385 51.0567468 54.05399576 51.05098909 51.83685303 51.04522705 C47.18648039 51.03472142 42.53612502 51.02887601 37.88574219 51.02539062 C31.93626157 51.01990966 25.98701024 50.99588811 20.03760147 50.96741867 C15.45643453 50.94876429 10.87532249 50.94358517 6.29412079 50.94205475 C4.10134377 50.93903357 1.90856759 50.93102313 -0.28417206 50.91786957 C-3.35726695 50.90075231 -6.42980604 50.90270344 -9.50292969 50.90917969 C-10.85297089 50.89535751 -10.85297089 50.89535751 -12.23028564 50.8812561 C-19.30408564 50.92778762 -24.91906786 52.04581573 -30.46484375 56.765625 C-34.02304209 61.07859269 -33.86864502 65.15561783 -33.8046875 70.53515625 C-33.41024972 74.41842394 -32.1995399 76.45278695 -29.52734375 79.265625 C-17.76246653 86.13306409 -1.4201844 84.56700591 11.7957325 84.60115051 C14.96651111 84.60959799 18.13702268 84.63024556 21.307724 84.65368652 C28.0501605 84.70145557 34.79262455 84.73462624 41.53515625 84.765625 C49.33934927 84.8016491 57.1434103 84.84410505 64.94747734 84.90156555 C68.02604528 84.92119426 71.10450428 84.9298629 74.18312073 84.93786621 C138.93918587 85.28531637 138.93918587 85.28531637 158.45703125 103.07421875 C174.65524618 120.27616922 173.05154268 145.33155451 172.47265625 167.265625 C171.81997609 182.20828625 168.58815319 196.042634 157.81640625 206.94140625 C146.29062681 217.49797242 130.0515672 219.76555845 115.07348633 221.48681641 C114.01256348 221.61273285 114.01256348 221.61273285 112.93020785 221.74119306 C97.92964841 223.49494186 83.02910709 223.8306439 67.92871833 223.73706388 C64.35213309 223.71891364 60.77555079 223.7230285 57.19892883 223.7237854 C51.21854633 223.7219396 45.23837258 223.70493888 39.25805664 223.67724609 C32.4077524 223.64563601 25.55767372 223.63525807 18.7073018 223.6367172 C11.29798814 223.63808046 3.88875765 223.62415616 -3.52053046 223.60582399 C-5.61046987 223.60162311 -7.70039531 223.60015039 -9.79033852 223.59934616 C-50.7051732 223.56880193 -50.7051732 223.56880193 -67.52734375 218.265625 C-68.46835938 217.97816406 -69.409375 217.69070313 -70.37890625 217.39453125 C-82.35854341 213.41781974 -91.52902975 206.67671261 -97.27734375 195.265625 C-101.95143846 183.95832657 -102.71367777 172.7810793 -102.6015625 160.71484375 C-102.59620483 159.60991577 -102.59084717 158.50498779 -102.58532715 157.36657715 C-102.57145648 154.66617787 -102.55200666 151.96594361 -102.52734375 149.265625 C-93.80890372 149.24249889 -85.09047419 149.22470854 -76.37201023 149.21381283 C-72.32408633 149.20858459 -68.27618334 149.20148801 -64.22827148 149.19018555 C-60.32498404 149.17935457 -56.42171676 149.17334772 -52.51841545 149.17074776 C-51.02600728 149.16889389 -49.53360027 149.165274 -48.04120064 149.15989494 C-45.95786236 149.15268169 -43.87460844 149.15163417 -41.79125977 149.15209961 C-40.60323257 149.149879 -39.41520538 149.14765839 -38.19117737 149.14537048 C-35.52734375 149.265625 -35.52734375 149.265625 -34.52734375 150.265625 C-34.20390075 152.15629634 -33.91870193 154.05357063 -33.65234375 155.953125 C-32.62512746 162.22807667 -31.75811935 166.5094825 -26.58984375 170.578125 C-22.61118945 172.77044471 -19.5510317 173.38874101 -15.04475403 173.40606689 C-14.15194733 173.41177704 -13.25914063 173.41748718 -12.33927917 173.42337036 C-10.8812664 173.42504715 -10.8812664 173.42504715 -9.39379883 173.42675781 C-7.84915955 173.43420517 -7.84915955 173.43420517 -6.27331543 173.44180298 C-2.86449516 173.45641454 0.54427855 173.46322559 3.953125 173.46875 C6.32481385 173.47450305 8.6965027 173.48026077 11.06819153 173.48602295 C16.043917 173.49653061 21.01962632 173.50237457 25.99536133 173.50585938 C32.35950803 173.51133819 38.72344015 173.53535433 45.08751965 173.56383133 C49.98869949 173.58249161 54.88982805 173.58766516 59.79104042 173.58919525 C62.13649987 173.59221553 64.48195855 173.60022287 66.82738304 173.61338043 C70.11579891 173.63050855 73.40369582 173.62854375 76.69213867 173.62207031 C78.13496971 173.63589249 78.13496971 173.63589249 79.60694885 173.6499939 C87.08577349 173.60406772 93.660654 172.66754359 99.47265625 167.703125 C102.71921993 163.74637551 102.6257322 160.831992 102.59765625 155.890625 C102.60152344 155.21773437 102.60539063 154.54484375 102.609375 153.8515625 C102.65245911 148.95791135 102.65245911 148.95791135 101.47265625 144.265625 C99.19198555 143.05264851 99.19198555 143.05264851 96.47265625 142.265625 C95.71597656 141.93949219 94.95929688 141.61335937 94.1796875 141.27734375 C86.08112084 138.25060672 76.8026663 138.13332664 68.22607422 137.72241211 C67.35743177 137.6801673 66.48878933 137.6379225 65.59382439 137.59439754 C57.09799369 137.20712545 48.60724899 137.08685528 40.10364151 137.03582954 C37.3823403 137.01892156 34.66115152 136.99568812 31.93991089 136.97093201 C24.21895295 136.90146399 16.49795398 136.84037016 8.77685547 136.78881836 C-70.52945482 136.24544401 -70.52945482 136.24544401 -90.234375 118.75 C-102.15834976 106.31284152 -101.90104738 87.61629456 -101.89794922 71.5012207 C-101.90231995 68.96692492 -101.9387674 66.43438026 -101.9765625 63.90039062 C-102.07158039 50.07276466 -100.75656796 35.9075569 -92.52734375 24.265625 C-92.1096875 23.65589844 -91.69203125 23.04617187 -91.26171875 22.41796875 C-81.05014368 9.06662778 -62.28182972 4.12730931 -46.39614677 1.97716522 C-30.93669685 0.11779945 -15.55234776 -0.02884287 0 0 Z " fill="#FEFDFD" transform="translate(134.52734375,91.734375)"/>
<path d="M0 0 C23.1 0 46.2 0 70 0 C70 53.13 70 106.26 70 161 C121.81 161 173.62 161 227 161 C227 179.48 227 197.96 227 217 C152.09 217 77.18 217 0 217 C0 145.39 0 73.78 0 0 Z " fill="#FEFEFE" transform="translate(341,95)"/>
<path d="M0 0 C176.88 0 353.76 0 536 0 C536 5.61 536 11.22 536 17 C359.12 17 182.24 17 0 17 C0 11.39 0 5.78 0 0 Z " fill="#FEFBFB" transform="translate(32,351)"/>
<path d="M0 0 C1.25159912 0.00523682 2.50319824 0.01047363 3.79272461 0.01586914 C4.78942421 0.01799156 4.78942421 0.01799156 5.80625916 0.02015686 C7.93590735 0.02577021 10.06545175 0.03832485 12.19506836 0.05102539 C13.63582205 0.05603868 15.07657739 0.06060188 16.51733398 0.06469727 C20.05577938 0.07574394 23.59416375 0.09301747 27.13256836 0.11352539 C33.79962448 16.05915731 40.35551401 32.04822454 46.79321289 48.08789062 C47.52022767 49.89858433 48.2484206 51.70880543 48.9777832 53.51855469 C50.00689724 56.07353991 51.03136014 58.63033907 52.05444336 61.18774414 C52.36637634 61.96043137 52.67830933 62.73311859 52.99969482 63.52922058 C55.13256836 68.88436926 55.13256836 68.88436926 55.13256836 71.11352539 C55.79256836 71.11352539 56.45256836 71.11352539 57.13256836 71.11352539 C57.28523163 70.55484268 57.4378949 69.99615997 57.59518433 69.42054749 C59.78195328 61.76098317 62.66709996 54.4294012 65.64038086 47.04711914 C66.17208606 45.71871341 66.70348318 44.39018433 67.23458862 43.0615387 C68.33965158 40.29970198 69.44761132 37.53905238 70.55786133 34.77929688 C71.98278799 31.23698172 73.40149409 27.69221484 74.81823921 24.14662075 C75.91084409 21.41357839 77.00605522 18.6815868 78.10213852 15.94993782 C78.62671453 14.64201642 79.15061485 13.33382381 79.67383194 12.0253582 C80.40116004 10.20793226 81.13224583 8.39201147 81.86352539 6.57617188 C82.27861359 5.54266098 82.69370178 4.50915009 83.12136841 3.44432068 C84.13256836 1.11352539 84.13256836 1.11352539 85.13256836 0.11352539 C95.03256836 0.11352539 104.93256836 0.11352539 115.13256836 0.11352539 C115.13256836 34.76352539 115.13256836 69.41352539 115.13256836 105.11352539 C106.55256836 105.11352539 97.97256836 105.11352539 89.13256836 105.11352539 C88.80256836 86.30352539 88.47256836 67.49352539 88.13256836 48.11352539 C84.18201869 58.27208169 80.33035932 68.30293427 76.74975586 78.57055664 C74.85366569 83.94844805 72.84284773 89.28222144 70.82006836 94.61352539 C70.47016846 95.54076416 70.12026855 96.46800293 69.75976562 97.42333984 C69.26947876 98.70857544 69.26947876 98.70857544 68.76928711 100.01977539 C68.47755615 100.78612305 68.1858252 101.5524707 67.88525391 102.34204102 C67.13256836 104.11352539 67.13256836 104.11352539 66.13256836 105.11352539 C64.57084091 105.20038142 63.00527492 105.22054759 61.44116211 105.21118164 C60.49692383 105.20795898 59.55268555 105.20473633 58.57983398 105.20141602 C57.58661133 105.19303711 56.59338867 105.1846582 55.57006836 105.17602539 C54.57297852 105.17151367 53.57588867 105.16700195 52.54858398 105.16235352 C50.07651987 105.15052546 47.60457318 105.13404388 45.13256836 105.11352539 C44.88644806 104.44811234 44.64032776 103.78269928 44.38674927 103.09712219 C42.06287764 96.81464136 39.7383731 90.53239513 37.41316414 84.25040913 C36.21788511 81.02107171 35.02284772 77.79164531 33.82836914 74.56201172 C32.45393284 70.84584103 31.07843365 67.13006421 29.70288086 63.41430664 C29.06215134 61.68124016 29.06215134 61.68124016 28.40847778 59.91316223 C28.00821381 58.83241928 27.60794983 57.75167633 27.19555664 56.63818359 C26.84470001 55.68998245 26.49384338 54.74178131 26.13235474 53.7648468 C25.1657737 51.20158223 24.14997576 48.65704389 23.13256836 46.11352539 C22.80256836 65.58352539 22.47256836 85.05352539 22.13256836 105.11352539 C13.55256836 105.11352539 4.97256836 105.11352539 -3.86743164 105.11352539 C-3.88998017 91.57088064 -3.90834528 78.02824826 -3.91924381 64.48558903 C-3.92447326 58.19790515 -3.93157203 51.91023473 -3.94287109 45.62255859 C-3.95369778 39.56014816 -3.95970801 33.4977507 -3.96230888 27.43533134 C-3.96416353 25.11676262 -3.96778489 22.79819465 -3.9731617 20.47963142 C-3.98036922 17.24438031 -3.9814227 14.00918356 -3.98095703 10.77392578 C-3.98455231 9.80504425 -3.98814758 8.83616272 -3.99185181 7.83792114 C-3.99047714 6.96147446 -3.98910248 6.08502777 -3.98768616 5.18202209 C-3.98860795 4.41601213 -3.98952974 3.65000216 -3.99047947 2.86077976 C-3.77776295 -0.159752 -3.05184298 0.12082648 0 0 Z " fill="#FEFBFB" transform="translate(452.867431640625,402.886474609375)"/>
<path d="M0 0 C9.9 0 19.8 0 30 0 C35.58115252 14.30661631 40.98767269 28.61291984 45.95043945 43.14453125 C48.09218135 49.40846821 50.33056951 55.59666574 52.76171875 61.75390625 C54.73444526 66.92531234 56.52131686 72.16106448 58.32885742 77.39208984 C60.49602272 83.6385202 62.78131534 89.83094791 65.22241211 95.97583008 C66.49765467 99.26922169 67 101.39438591 67 105 C58.09 105 49.18 105 40 105 C39.175 102.40125 38.35 99.8025 37.5 97.125 C37.23896484 96.30789551 36.97792969 95.49079102 36.70898438 94.64892578 C35 89.22222222 35 89.22222222 35 87 C21.8 87 8.6 87 -5 87 C-5.66 89.97 -6.32 92.94 -7 96 C-7.99 98.97 -8.98 101.94 -10 105 C-18.91 105 -27.82 105 -37 105 C-34.79017857 95.05580357 -34.79017857 95.05580357 -32.875 90.9375 C-30.22241518 84.82638276 -28.1365862 78.57858431 -26.0625 72.25 C-23.15754988 63.40443028 -20.08618811 54.664872 -16.75195312 45.97363281 C-15.37006784 42.34663261 -14.02900226 38.70459103 -12.6875 35.0625 C-12.40503418 34.29599121 -12.12256836 33.52948242 -11.83154297 32.73974609 C-7.82893875 21.84781098 -3.92196017 10.92115063 0 0 Z " fill="#FEFCFC" transform="translate(326,403)"/>
<path d="M0 0 C1.88700623 -0.00472824 1.88700623 -0.00472824 3.81213379 -0.009552 C5.19571975 -0.00776222 6.5793054 -0.00571127 7.96289062 -0.00341797 C9.37154151 -0.00409106 10.78019229 -0.00506112 12.18884277 -0.00631714 C15.14462385 -0.00779389 18.10037476 -0.0056403 21.05615234 -0.00097656 C24.85288647 0.00472073 28.64954991 0.0014416 32.44628143 -0.00454903 C35.35610491 -0.00815526 38.2659115 -0.00701577 41.17573547 -0.00442123 C42.57603463 -0.00375214 43.9763353 -0.00457979 45.37663269 -0.00690079 C47.33051526 -0.00942829 49.28440318 -0.0048958 51.23828125 0 C52.35223267 0.00079559 53.46618408 0.00159119 54.6138916 0.00241089 C57.11914062 0.12939453 57.11914062 0.12939453 58.11914062 1.12939453 C58.20583495 2.61811313 58.22617556 4.11083953 58.21679688 5.60205078 C58.21429932 6.4116626 58.21180176 7.22127441 58.20922852 8.05541992 C58.20012451 9.09045654 58.19102051 10.12549316 58.18164062 11.19189453 C58.16101563 14.47126953 58.14039063 17.75064453 58.11914062 21.12939453 C45.24914062 21.12939453 32.37914062 21.12939453 19.11914062 21.12939453 C19.11914062 28.05939453 19.11914062 34.98939453 19.11914062 42.12939453 C30.33914062 42.12939453 41.55914062 42.12939453 53.11914062 42.12939453 C53.11914062 48.72939453 53.11914062 55.32939453 53.11914062 62.12939453 C41.89914063 62.12939453 30.67914063 62.12939453 19.11914062 62.12939453 C19.11914062 69.38939453 19.11914062 76.64939453 19.11914062 84.12939453 C21.85066406 84.11779297 24.5821875 84.10619141 27.39648438 84.09423828 C30.03084192 84.08644811 32.66519819 84.08037112 35.29956055 84.07446289 C37.13582937 84.06942222 38.97209417 84.06258976 40.80834961 84.05395508 C43.44190464 84.04187781 46.07540679 84.03616372 48.70898438 84.03173828 C49.5350267 84.026577 50.36106903 84.02141571 51.21214294 84.01609802 C53.1815043 84.01590249 55.15075676 84.06735301 57.11914062 84.12939453 C62.07449687 89.08475078 58.11914062 98.12146252 58.11914062 105.12939453 C36.66914063 105.12939453 15.21914062 105.12939453 -6.88085938 105.12939453 C-6.92096818 79.21464717 -6.92096818 79.21464717 -6.9296875 68.20947266 C-6.93567659 60.68578389 -6.94277864 53.16210723 -6.95629883 45.63842773 C-6.96712551 39.5760173 -6.97313574 33.51361984 -6.97573662 27.45120049 C-6.97759126 25.13263176 -6.98121262 22.81406379 -6.98658943 20.49550056 C-6.99379695 17.26024945 -6.99485044 14.0250527 -6.99438477 10.78979492 C-6.99798004 9.82091339 -7.00157532 8.85203186 -7.00527954 7.85379028 C-7.00390488 6.9773436 -7.00253021 6.10089691 -7.00111389 5.19789124 C-7.00203568 4.43188127 -7.00295748 3.6658713 -7.0039072 2.8766489 C-6.72138652 -1.13508793 -3.26388884 0.0023311 0 0 Z " fill="#FEF9F9" transform="translate(176.880859375,402.87060546875)"/>
<path d="M0 0 C26.73 0 53.46 0 81 0 C81 6.6 81 13.2 81 20 C72.09 20 63.18 20 54 20 C54 47.72 54 75.44 54 104 C45.42 104 36.84 104 28 104 C28 76.28 28 48.56 28 20 C18.76 20 9.52 20 0 20 C0 13.4 0 6.8 0 0 Z " fill="#FEFCFC" transform="translate(32,404)"/>
<path d="M0 0 C0.66 0 1.32 0 2 0 C3.57428356 4.62388701 5.14062565 9.25035947 6.69970703 13.87939453 C7.23106589 15.45337089 7.76457777 17.02662212 8.30029297 18.59912109 C9.07047236 20.86107653 9.83284106 23.1255368 10.59375 25.390625 C10.83436157 26.09181458 11.07497314 26.79300415 11.32287598 27.51544189 C12.45156267 30.89995358 13 33.38533252 13 37 C5.08 37 -2.84 37 -11 37 C-10.24794763 31.73563341 -9.38844735 27.68997763 -7.71484375 22.75390625 C-7.49429825 22.09792953 -7.27375275 21.44195282 -7.04652405 20.76609802 C-6.34918801 18.69626334 -5.64350868 16.62939047 -4.9375 14.5625 C-4.45972915 13.14927683 -3.98251035 11.7358669 -3.50585938 10.32226562 C-2.34360916 6.87932972 -1.17386505 3.43899571 0 0 Z " fill="#EC262E" transform="translate(340,433)"/>
</svg>
